<?xml version="1.0" standalone="no"?>
<!DOCTYPE svg PUBLIC "-//W3C//DTD SVG 20010904//EN"
 "http://www.w3.org/TR/2001/REC-SVG-20010904/DTD/svg10.dtd">
<svg version="1.0" xmlns="http://www.w3.org/2000/svg"
 width="575.000000pt" height="575.000000pt" viewBox="0 0 575.000000 575.000000"
 preserveAspectRatio="xMidYMid meet">
<metadata>
Created by potrace 1.11, written by Peter Selinger 2001-2013
</metadata>
<g transform="translate(0.000000,575.000000) scale(0.100000,-0.100000)"
fill="#000000" stroke="none">
<path d="M2439 5726 c-2 -3 -74 -5 -159 -7 -232 -2 -417 -28 -577 -79 -51 -17
-97 -30 -102 -30 -6 0 -40 -13 -76 -30 -36 -16 -70 -30 -76 -30 -13 0 -72 -30
-79 -40 -3 -4 -36 -27 -75 -50 -79 -48 -174 -122 -255 -199 -80 -76 -90 -86
-140 -123 -48 -36 -112 -98 -103 -98 3 0 -1 -8 -10 -17 -22 -25 -97 -174 -97
-194 0 -9 -21 -66 -46 -125 -25 -60 -49 -125 -54 -144 -4 -19 -24 -96 -44
-170 -20 -74 -36 -146 -36 -160 0 -14 -15 -79 -34 -145 -53 -185 -60 -249 -51
-458 4 -100 9 -254 11 -342 4 -240 10 -295 34 -350 12 -27 35 -88 52 -134 16
-47 36 -94 44 -106 8 -12 11 -25 7 -30 -5 -4 -3 -5 3 -2 7 4 19 -12 31 -41 25
-59 85 -153 122 -191 32 -32 71 -55 115 -65 22 -5 26 -10 17 -19 -20 -20 -13
-38 13 -31 16 4 25 1 29 -10 4 -9 2 -16 -3 -16 -6 0 -10 -7 -10 -15 0 -8 6
-15 13 -15 8 0 18 -16 24 -35 6 -19 8 -34 4 -33 -36 4 -71 -4 -71 -18 0 -12 9
-15 42 -13 26 2 43 -1 46 -9 2 -8 -9 -12 -37 -12 -23 0 -41 -4 -41 -10 0 -5
20 -10 44 -10 30 0 46 -5 50 -15 11 -28 -5 -45 -42 -45 -42 0 -32 -17 13 -22
30 -3 30 -4 31 -65 1 -42 -3 -66 -12 -74 -19 -16 -18 -40 1 -33 18 7 20 -17 2
-35 -9 -11 -9 -14 1 -18 16 -6 16 -35 -1 -52 -10 -11 -9 -14 1 -18 8 -3 10 -9
4 -16 -5 -7 -12 -29 -15 -50 -5 -31 -3 -38 8 -33 10 4 15 -1 15 -14 0 -11 -3
-20 -7 -20 -13 0 -63 -47 -63 -59 0 -17 15 -13 35 9 22 25 44 27 23 3 -16 -20
-13 -53 5 -53 6 0 2 -6 -9 -14 -15 -12 -17 -17 -7 -27 24 -25 16 -49 -17 -49
-20 0 -30 -5 -30 -15 0 -11 -11 -15 -38 -15 -21 0 -61 -6 -88 -14 -27 -8 -74
-17 -104 -21 -79 -9 -154 -31 -324 -96 -27 -11 -57 -19 -67 -19 -10 0 -34 -9
-53 -21 l-36 -21 0 -599 0 -599 2685 0 2685 0 0 60 c0 56 -2 61 -26 70 -14 6
-35 10 -48 10 -12 0 -80 30 -151 66 -72 36 -152 71 -180 79 -27 7 -63 18 -78
24 -16 6 -55 11 -87 11 -34 0 -78 8 -102 17 -30 12 -71 18 -130 18 -85 0 -88
1 -88 23 0 41 -40 102 -90 138 -27 19 -50 38 -52 43 -2 4 -34 28 -73 53 -92
61 -129 94 -119 109 5 8 3 9 -5 4 -7 -4 -22 1 -34 13 -30 27 -50 31 -63 14 -9
-12 -13 -10 -26 9 -8 13 -18 36 -21 50 -8 30 -139 159 -162 159 -13 0 -12 6 4
38 17 34 97 122 111 122 3 0 18 -11 34 -25 16 -14 33 -25 37 -25 12 0 97 -59
134 -93 37 -33 105 -37 105 -4 0 10 4 16 9 13 5 -3 11 0 14 7 2 7 16 13 30 15
33 2 246 103 314 148 99 66 183 184 178 251 -1 13 3 23 8 23 13 0 4 220 -10
228 -13 9 -33 92 -33 141 0 23 -4 41 -10 41 -5 0 -10 5 -10 11 0 5 5 7 10 4
10 -6 14 18 11 61 -1 13 19 46 53 85 30 34 53 66 51 70 -3 4 8 21 25 39 32 34
51 88 43 119 -2 10 0 22 6 25 6 4 11 14 11 22 0 24 -27 -7 -33 -37 l-4 -24 -2
23 c-1 25 32 76 43 65 3 -3 6 2 6 11 0 10 13 35 29 55 47 61 101 169 117 239
23 98 14 244 -21 311 -14 28 -25 67 -25 88 0 29 -3 34 -10 23 -8 -11 -9 -7 -4
15 4 17 15 39 25 51 11 11 19 28 19 37 0 9 4 17 9 17 12 0 35 86 27 99 -4 7
-1 8 8 5 12 -5 16 1 16 25 0 17 -4 31 -10 31 -5 0 -10 5 -10 11 0 5 5 7 10 4
8 -5 13 22 9 51 0 4 5 11 13 16 10 7 9 11 -6 23 -11 8 -15 15 -10 15 6 0 15
-5 21 -11 9 -9 16 -2 28 27 8 21 17 51 19 66 1 15 6 31 9 34 11 12 -4 98 -26
144 -16 33 -22 64 -21 115 0 96 6 117 42 140 63 41 68 104 11 124 -45 15 -104
-18 -146 -84 -31 -47 -38 -78 -8 -39 8 10 15 14 15 7 0 -6 -10 -20 -22 -30
-13 -10 -24 -25 -25 -33 -1 -8 -7 -42 -13 -74 -6 -33 -9 -75 -5 -94 4 -23 3
-32 -4 -27 -14 8 -14 -1 0 -27 11 -20 11 -20 -13 -2 -15 11 -23 25 -21 35 6
22 -32 60 -52 53 -24 -9 -31 -55 -11 -69 9 -7 16 -25 16 -42 0 -16 5 -34 11
-40 8 -8 8 -13 0 -17 -6 -4 -11 -34 -11 -66 0 -66 -12 -104 -39 -129 -25 -21
-61 -180 -61 -266 0 -37 7 -95 16 -129 13 -50 14 -70 4 -113 -13 -58 -11 -233
2 -233 5 0 6 -10 3 -21 -4 -12 -3 -19 1 -16 5 3 9 -7 10 -21 0 -15 4 -44 8
-65 8 -38 7 -40 -50 -94 -33 -32 -58 -63 -56 -72 2 -13 1 -13 -6 -2 -8 10 -15
9 -36 -10 -16 -14 -24 -29 -21 -38 3 -9 3 -12 -1 -9 -9 10 -26 -9 -68 -75 -20
-31 -36 -66 -36 -77 0 -12 -4 -19 -9 -16 -5 3 -11 -4 -14 -16 -9 -33 1 -337
12 -388 6 -25 10 -108 11 -185 0 -120 -3 -144 -19 -170 -35 -57 -86 -97 -202
-163 -19 -10 -60 -34 -91 -51 -32 -18 -58 -38 -58 -45 0 -19 -43 -14 -75 9
-16 12 -49 32 -72 45 -23 13 -40 27 -37 31 3 5 -1 6 -9 3 -8 -3 -18 -1 -22 5
-3 6 -2 11 3 11 22 0 47 58 54 125 14 142 32 231 46 228 6 -2 9 3 6 10 -2 7
16 35 41 61 26 28 50 65 57 89 13 46 65 134 91 156 9 7 19 29 23 50 8 44 18
65 56 114 18 23 36 63 45 101 8 35 22 72 32 83 41 44 45 64 49 248 2 109 -1
204 -8 240 -6 33 -14 76 -17 95 -3 19 -10 40 -15 47 -5 7 -6 18 -2 24 4 8 3 9
-4 5 -11 -7 -38 38 -34 56 1 5 -3 7 -10 5 -6 -1 -13 6 -15 15 -3 13 1 15 19
11 22 -5 22 -4 -4 21 -28 27 -36 46 -19 46 5 0 6 20 3 45 -4 39 -2 45 12 39
21 -8 21 4 0 27 -11 13 -14 27 -9 46 6 26 8 26 19 10 16 -21 26 -22 26 -2 0 8
-4 15 -10 15 -18 0 -23 49 -6 65 9 9 19 28 22 43 3 15 23 72 44 127 46 123 60
195 60 313 0 86 -11 138 -50 227 -5 11 -11 36 -13 55 -3 19 -12 60 -20 90 -9
30 -21 75 -27 100 -6 25 -16 53 -21 63 -5 10 -7 23 -3 30 4 7 3 9 -1 4 -5 -4
-20 15 -34 42 -42 80 -79 129 -119 159 -50 36 -130 126 -147 166 -47 113 -64
144 -102 182 -23 24 -44 52 -48 64 -3 11 -11 20 -17 20 -5 0 -7 7 -4 16 3 8 2
12 -4 9 -9 -6 -36 34 -32 48 1 5 -2 6 -8 2 -18 -11 -215 198 -204 217 4 7 2 8
-5 4 -7 -4 -31 9 -59 31 -105 87 -285 173 -482 233 -58 17 -123 37 -145 45
-22 7 -57 16 -77 20 -21 3 -38 10 -38 15 0 6 -3 9 -7 8 -5 0 -28 8 -53 20 -66
30 -150 49 -275 61 -109 11 -338 15 -346 7z m2911 -1691 c-7 -8 -16 -15 -21
-15 -5 0 -1 8 9 18 20 22 31 19 12 -3z m13 -160 c-3 -9 -8 -14 -10 -11 -3 3
-2 9 2 15 9 16 15 13 8 -4z m-6 -47 c-3 -8 -6 -5 -6 6 -1 11 2 17 5 13 3 -3 4
-12 1 -19z m-12 -17 c3 -5 1 -12 -5 -16 -5 -3 -10 1 -10 9 0 18 6 21 15 7z
m62 -173 c-3 -7 -5 -2 -5 12 0 14 2 19 5 13 2 -7 2 -19 0 -25z m-220 -10 c-3
-7 -5 -2 -5 12 0 14 2 19 5 13 2 -7 2 -19 0 -25z m203 23 c0 -5 -7 -12 -16
-15 -14 -5 -15 -4 -4 9 14 17 20 19 20 6z m-13 -193 c-3 -8 -6 -5 -6 6 -1 11
2 17 5 13 3 -3 4 -12 1 -19z m-286 -861 c-10 -9 -11 -8 -5 6 3 10 9 15 12 12
3 -3 0 -11 -7 -18z"/>
</g>
</svg>
